<?xml version="1.0" encoding="UTF-8"?>
<!DOCTYPE svg PUBLIC "-//W3C//DTD SVG 1.1//EN" "http://www.w3.org/Graphics/SVG/1.1/DTD/svg11.dtd">
<svg xmlns="http://www.w3.org/2000/svg" version="1.1" width="42px" height="40px" style="shape-rendering:geometricPrecision; text-rendering:geometricPrecision; image-rendering:optimizeQuality; fill-rule:evenodd; clip-rule:evenodd" xmlns:xlink="http://www.w3.org/1999/xlink">
<g><path style="opacity:0.83" fill="#020303" d="M 41.5,18.5 C 41.5,18.8333 41.5,19.1667 41.5,19.5C 35.7302,25.7714 29.7302,31.9381 23.5,38C 21.8659,38.4935 20.1992,38.6602 18.5,38.5C 18.3398,36.8008 18.5065,35.1341 19,33.5C 22.5,30 26,26.5 29.5,23C 19.2465,23.1058 9.24655,22.2724 -0.5,20.5C -0.5,19.8333 -0.5,19.1667 -0.5,18.5C 0.28913,18.2172 0.955796,17.7172 1.5,17C 10.8333,16.6667 20.1667,16.3333 29.5,16C 25.6667,12.1667 21.8333,8.33333 18,4.5C 17.51,3.20677 17.3433,1.87344 17.5,0.5C 19.1992,0.339822 20.8659,0.506489 22.5,1C 28.8655,6.84056 35.1988,12.6739 41.5,18.5 Z"/></g>
</svg>
