<?xml version="1.0" encoding="UTF-8"?>
<!DOCTYPE svg PUBLIC "-//W3C//DTD SVG 1.1//EN" "http://www.w3.org/Graphics/SVG/1.1/DTD/svg11.dtd">
<svg xmlns="http://www.w3.org/2000/svg" version="1.1" width="106px" height="91px" style="shape-rendering:geometricPrecision; text-rendering:geometricPrecision; image-rendering:optimizeQuality; fill-rule:evenodd; clip-rule:evenodd" xmlns:xlink="http://www.w3.org/1999/xlink">
<g><path style="opacity:0.903" fill="#020303" d="M 2.5,-0.5 C 35.8333,-0.5 69.1667,-0.5 102.5,-0.5C 104.432,2.17691 104.932,5.17691 104,8.5C 103.25,9.12576 102.416,9.62576 101.5,10C 68.8333,10.6667 36.1667,10.6667 3.5,10C 2.01608,9.33782 0.682751,8.50449 -0.5,7.5C -0.5,5.83333 -0.5,4.16667 -0.5,2.5C 0.5,1.5 1.5,0.5 2.5,-0.5 Z"/></g>
<g><path style="opacity:0.897" fill="#020303" d="M -0.5,47.5 C -0.5,45.8333 -0.5,44.1667 -0.5,42.5C 0.682751,41.4955 2.01608,40.6622 3.5,40C 20.1667,39.3333 36.8333,39.3333 53.5,40C 57.9255,42.5488 58.5921,45.8821 55.5,50C 37.8333,50.6667 20.1667,50.6667 2.5,50C 1.30943,49.3021 0.309426,48.4687 -0.5,47.5 Z"/></g>
<g><path style="opacity:0.903" fill="#020303" d="M 101.5,90.5 C 68.8333,90.5 36.1667,90.5 3.5,90.5C 2.20498,89.5116 0.871651,88.5116 -0.5,87.5C -0.5,85.8333 -0.5,84.1667 -0.5,82.5C 0.309426,81.5313 1.30943,80.6979 2.5,80C 35.8333,79.3333 69.1667,79.3333 102.5,80C 105.385,83.9438 105.052,87.4438 101.5,90.5 Z"/></g>
</svg>
