<?xml version="1.0" encoding="UTF-8"?>
<!DOCTYPE svg PUBLIC "-//W3C//DTD SVG 1.1//EN" "http://www.w3.org/Graphics/SVG/1.1/DTD/svg11.dtd">
<svg xmlns="http://www.w3.org/2000/svg" version="1.1" width="78px" height="78px" style="shape-rendering:geometricPrecision; text-rendering:geometricPrecision; image-rendering:optimizeQuality; fill-rule:evenodd; clip-rule:evenodd" xmlns:xlink="http://www.w3.org/1999/xlink">
<g><path style="opacity:0.974" fill="#030304" d="M 31.5,-0.5 C 36.1667,-0.5 40.8333,-0.5 45.5,-0.5C 62.9221,3.92247 73.5888,14.9225 77.5,32.5C 77.5,36.1667 77.5,39.8333 77.5,43.5C 72.8049,63.1968 60.4716,74.5301 40.5,77.5C 39.1667,77.5 37.8333,77.5 36.5,77.5C 16.5284,74.5301 4.1951,63.1968 -0.5,43.5C -0.5,40.1667 -0.5,36.8333 -0.5,33.5C 2.96294,15.3708 13.6296,4.03747 31.5,-0.5 Z"/></g>
<g><path style="opacity:1" fill="#efefef" d="M 42.5,28.5 C 42.44,27.9569 42.1067,27.6236 41.5,27.5C 40.5016,37.1437 40.1682,46.8104 40.5,56.5C 39.1667,57.8333 37.8333,57.8333 36.5,56.5C 36.8318,46.8104 36.4984,37.1437 35.5,27.5C 34.8933,27.6236 34.56,27.9569 34.5,28.5C 31.3707,32.1309 28.0374,35.6309 24.5,39C 22.8659,39.4935 21.1992,39.6602 19.5,39.5C 23.982,31.1742 30.1486,24.1742 38,18.5C 44.9174,23.4121 51.2508,29.0788 57,35.5C 57.49,36.7932 57.6567,38.1266 57.5,39.5C 55.8008,39.6602 54.1341,39.4935 52.5,39C 48.9626,35.6309 45.6293,32.1309 42.5,28.5 Z"/></g>
<g><path style="opacity:1" fill="#636167" d="M 34.5,28.5 C 34.56,27.9569 34.8933,27.6236 35.5,27.5C 36.4984,37.1437 36.8318,46.8104 36.5,56.5C 35.8333,47.1667 35.1667,37.8333 34.5,28.5 Z"/></g>
<g><path style="opacity:1" fill="#646268" d="M 42.5,28.5 C 41.8333,37.8333 41.1667,47.1667 40.5,56.5C 40.1682,46.8104 40.5016,37.1437 41.5,27.5C 42.1067,27.6236 42.44,27.9569 42.5,28.5 Z"/></g>
</svg>
