<?xml version="1.0" encoding="UTF-8"?>
<!DOCTYPE svg PUBLIC "-//W3C//DTD SVG 1.1//EN" "http://www.w3.org/Graphics/SVG/1.1/DTD/svg11.dtd">
<svg xmlns="http://www.w3.org/2000/svg" version="1.1" width="96px" height="99px" style="shape-rendering:geometricPrecision; text-rendering:geometricPrecision; image-rendering:optimizeQuality; fill-rule:evenodd; clip-rule:evenodd" xmlns:xlink="http://www.w3.org/1999/xlink">
<g><path style="opacity:0.909" fill="#020303" d="M 47.5,-0.5 C 52.5,-0.5 57.5,-0.5 62.5,-0.5C 79.8333,4.16667 90.8333,15.1667 95.5,32.5C 95.5,37.5 95.5,42.5 95.5,47.5C 87.4579,73.0316 70.1246,83.5316 43.5,79C 39.4689,77.5677 35.6355,75.7343 32,73.5C 23.6049,82.063 15.1049,90.3963 6.5,98.5C 5.16667,98.5 3.83333,98.5 2.5,98.5C 1.5,97.5 0.5,96.5 -0.5,95.5C -0.5,93.5 -0.5,91.5 -0.5,89.5C 7.63162,81.8691 15.6316,74.0358 23.5,66C 13.3474,51.7259 11.8474,36.5592 19,20.5C 25.8108,9.69425 35.3108,2.69425 47.5,-0.5 Z M 48.5,10.5 C 66.3453,9.0001 78.1786,16.6668 84,33.5C 85.9861,51.3636 78.4861,63.197 61.5,69C 43.6364,70.9861 31.803,63.4861 26,46.5C 24.1353,28.5491 31.6353,16.5491 48.5,10.5 Z"/></g>
</svg>
